<?xml version="1.0" standalone="no"?>
<!DOCTYPE svg PUBLIC "-//W3C//DTD SVG 20010904//EN"
 "http://www.w3.org/TR/2001/REC-SVG-20010904/DTD/svg10.dtd">
<svg version="1.0" xmlns="http://www.w3.org/2000/svg"
 width="32.000000pt" height="32.000000pt" viewBox="0 0 32.000000 32.000000"
 preserveAspectRatio="xMidYMid meet">

<g transform="translate(0.000000,32.000000) scale(0.100000,-0.100000)"
fill="#000000" stroke="none">
<path d="M91 292 c-48 -24 -73 -62 -78 -119 -14 -159 194 -227 277 -91 59 98
-15 228 -130 228 -19 0 -50 -8 -69 -18z m118 -46 c28 -15 51 -53 51 -87 0 -50
-49 -99 -100 -99 -29 0 -70 22 -70 37 0 15 16 17 25 3 10 -16 77 -12 97 7 23
20 24 80 1 105 -37 41 -133 9 -120 -41 6 -26 -16 -46 -31 -28 -8 9 -6 24 7 53
27 59 83 79 140 50z m-39 -65 c0 -15 5 -32 12 -39 7 -7 8 -12 2 -12 -6 0 -15
5 -22 12 -15 15 -16 82 -2 73 6 -3 10 -19 10 -34z"/>
</g>
</svg>
